<mxfile host="app.diagrams.net" modified="2023-11-22T15:07:28.749Z" agent="Mozilla/5.0 (Windows NT 10.0; Win64; x64) AppleWebKit/537.36 (KHTML, like Gecko) Chrome/119.0.0.0 Safari/537.36" etag="QAf7ZWr3gJ5sGNG6qzR7" version="22.1.3" type="github">
  <diagram name="第 1 页" id="CNPN29gQGGgicb1FF7h-">
    <mxGraphModel dx="794" dy="478" grid="0" gridSize="10" guides="1" tooltips="1" connect="1" arrows="1" fold="1" page="1" pageScale="1" pageWidth="827" pageHeight="1169" math="0" shadow="0">
      <root>
        <mxCell id="0" />
        <mxCell id="1" parent="0" />
        <mxCell id="eLOrg-9Cc9pyKztP_usg-1" value="" style="rounded=1;whiteSpace=wrap;html=1;arcSize=6;fillColor=#ffe6cc;strokeColor=#d79b00;" vertex="1" parent="1">
          <mxGeometry x="425" y="46" width="327" height="227" as="geometry" />
        </mxCell>
        <mxCell id="eLOrg-9Cc9pyKztP_usg-3" value="./run_regr.sh" style="text;html=1;align=center;verticalAlign=middle;whiteSpace=wrap;rounded=0;fontSize=18;strokeColor=#6c8ebf;fillColor=#dae8fc;" vertex="1" parent="1">
          <mxGeometry x="39" y="51" width="112" height="30" as="geometry" />
        </mxCell>
        <mxCell id="eLOrg-9Cc9pyKztP_usg-4" value="vps -c vps_regr.vpc" style="text;html=1;align=center;verticalAlign=middle;whiteSpace=wrap;rounded=0;fontSize=18;strokeColor=#6c8ebf;fillColor=#dae8fc;" vertex="1" parent="1">
          <mxGeometry x="194" y="51" width="186" height="30" as="geometry" />
        </mxCell>
        <mxCell id="eLOrg-9Cc9pyKztP_usg-5" value="mr/cov/run.sh" style="text;html=1;align=center;verticalAlign=middle;whiteSpace=wrap;rounded=0;fontSize=18;strokeColor=#82b366;fillColor=#d5e8d4;" vertex="1" parent="1">
          <mxGeometry x="39" y="119" width="341" height="30" as="geometry" />
        </mxCell>
        <mxCell id="eLOrg-9Cc9pyKztP_usg-6" value="" style="endArrow=classic;html=1;rounded=0;exitX=1;exitY=0.5;exitDx=0;exitDy=0;entryX=0;entryY=0.5;entryDx=0;entryDy=0;strokeWidth=2;" edge="1" parent="1" source="eLOrg-9Cc9pyKztP_usg-3" target="eLOrg-9Cc9pyKztP_usg-4">
          <mxGeometry width="50" height="50" relative="1" as="geometry">
            <mxPoint x="367" y="258" as="sourcePoint" />
            <mxPoint x="417" y="208" as="targetPoint" />
          </mxGeometry>
        </mxCell>
        <mxCell id="eLOrg-9Cc9pyKztP_usg-7" value="" style="endArrow=classic;html=1;rounded=0;exitX=0.5;exitY=1;exitDx=0;exitDy=0;entryX=0.724;entryY=0.1;entryDx=0;entryDy=0;strokeWidth=2;entryPerimeter=0;" edge="1" parent="1" source="eLOrg-9Cc9pyKztP_usg-4" target="eLOrg-9Cc9pyKztP_usg-5">
          <mxGeometry width="50" height="50" relative="1" as="geometry">
            <mxPoint x="161" y="76" as="sourcePoint" />
            <mxPoint x="204" y="76" as="targetPoint" />
          </mxGeometry>
        </mxCell>
        <mxCell id="eLOrg-9Cc9pyKztP_usg-10" value="vps_regr_xxx/mr/cov&amp;nbsp; session_dir" style="text;html=1;align=center;verticalAlign=middle;whiteSpace=wrap;rounded=0;fontSize=18;strokeColor=#666666;fillColor=#f5f5f5;fontColor=#333333;" vertex="1" parent="1">
          <mxGeometry x="438" y="91" width="301" height="30" as="geometry" />
        </mxCell>
        <mxCell id="eLOrg-9Cc9pyKztP_usg-11" value="vps -c nested_1.vpc" style="text;html=1;align=center;verticalAlign=middle;whiteSpace=wrap;rounded=0;fontSize=18;strokeColor=#d6b656;fillColor=#fff2cc;" vertex="1" parent="1">
          <mxGeometry x="36" y="196" width="172" height="30" as="geometry" />
        </mxCell>
        <mxCell id="eLOrg-9Cc9pyKztP_usg-12" value="n2/run_nested.sh" style="text;html=1;align=center;verticalAlign=middle;whiteSpace=wrap;rounded=0;fontSize=18;strokeColor=#10739e;fillColor=#b1ddf0;" vertex="1" parent="1">
          <mxGeometry x="220.5" y="196" width="159" height="30" as="geometry" />
        </mxCell>
        <mxCell id="eLOrg-9Cc9pyKztP_usg-13" value="/.../n2" style="text;html=1;align=center;verticalAlign=middle;whiteSpace=wrap;rounded=0;fontSize=18;strokeColor=#666666;fillColor=#f5f5f5;fontColor=#333333;" vertex="1" parent="1">
          <mxGeometry x="609" y="196" width="129" height="30" as="geometry" />
        </mxCell>
        <mxCell id="eLOrg-9Cc9pyKztP_usg-15" value="" style="strokeWidth=2;html=1;shape=mxgraph.flowchart.annotation_2;align=left;labelPosition=right;pointerEvents=1;treeFolding=0;portConstraint=none;portConstraintRotation=0;comic=0;enumerate=0;dropTarget=0;fixDash=0;verticalAlign=middle;noLabel=0;snapToPoint=0;treeMoving=0;collapsible=0;" vertex="1" parent="1">
          <mxGeometry x="267" y="351" width="66" height="65" as="geometry" />
        </mxCell>
        <mxCell id="eLOrg-9Cc9pyKztP_usg-16" value="" style="endArrow=classic;html=1;rounded=0;strokeWidth=2;" edge="1" parent="1">
          <mxGeometry width="50" height="50" relative="1" as="geometry">
            <mxPoint x="300" y="351" as="sourcePoint" />
            <mxPoint x="335" y="351" as="targetPoint" />
          </mxGeometry>
        </mxCell>
        <mxCell id="eLOrg-9Cc9pyKztP_usg-17" value="" style="endArrow=classic;html=1;rounded=0;strokeWidth=2;" edge="1" parent="1">
          <mxGeometry width="50" height="50" relative="1" as="geometry">
            <mxPoint x="300" y="416" as="sourcePoint" />
            <mxPoint x="335" y="416" as="targetPoint" />
          </mxGeometry>
        </mxCell>
        <mxCell id="eLOrg-9Cc9pyKztP_usg-18" value="" style="endArrow=classic;html=1;rounded=0;strokeWidth=2;entryX=0;entryY=0.5;entryDx=0;entryDy=0;exitX=1;exitY=0.5;exitDx=0;exitDy=0;" edge="1" parent="1">
          <mxGeometry width="50" height="50" relative="1" as="geometry">
            <mxPoint x="356" y="282" as="sourcePoint" />
            <mxPoint x="508" y="367" as="targetPoint" />
          </mxGeometry>
        </mxCell>
        <mxCell id="eLOrg-9Cc9pyKztP_usg-19" value="" style="rounded=0;whiteSpace=wrap;html=1;fillColor=none;" vertex="1" parent="1">
          <mxGeometry x="57" y="460" width="750" height="14" as="geometry" />
        </mxCell>
        <mxCell id="eLOrg-9Cc9pyKztP_usg-20" value="vps_regr_xxx session_dir" style="text;html=1;align=center;verticalAlign=middle;whiteSpace=wrap;rounded=0;fontSize=18;strokeColor=#666666;fillColor=#f5f5f5;fontColor=#333333;" vertex="1" parent="1">
          <mxGeometry x="439" y="51" width="299" height="30" as="geometry" />
        </mxCell>
        <mxCell id="eLOrg-9Cc9pyKztP_usg-21" value="" style="endArrow=none;html=1;rounded=0;strokeWidth=2;entryX=0;entryY=0.5;entryDx=0;entryDy=0;exitX=1;exitY=0.5;exitDx=0;exitDy=0;endFill=0;" edge="1" parent="1" source="eLOrg-9Cc9pyKztP_usg-5" target="eLOrg-9Cc9pyKztP_usg-10">
          <mxGeometry width="50" height="50" relative="1" as="geometry">
            <mxPoint x="447" y="421" as="sourcePoint" />
            <mxPoint x="490" y="421" as="targetPoint" />
          </mxGeometry>
        </mxCell>
        <mxCell id="eLOrg-9Cc9pyKztP_usg-22" value="/.../cov&amp;nbsp; session_dir" style="text;html=1;align=center;verticalAlign=middle;whiteSpace=wrap;rounded=0;fontSize=18;strokeColor=#666666;fillColor=#f5f5f5;fontColor=#333333;" vertex="1" parent="1">
          <mxGeometry x="438" y="143" width="301" height="30" as="geometry" />
        </mxCell>
        <mxCell id="eLOrg-9Cc9pyKztP_usg-23" value="" style="endArrow=none;html=1;rounded=0;strokeWidth=2;exitX=1;exitY=0.5;exitDx=0;exitDy=0;entryX=0;entryY=0.5;entryDx=0;entryDy=0;endFill=0;" edge="1" parent="1" source="eLOrg-9Cc9pyKztP_usg-5" target="eLOrg-9Cc9pyKztP_usg-22">
          <mxGeometry width="50" height="50" relative="1" as="geometry">
            <mxPoint x="390" y="148" as="sourcePoint" />
            <mxPoint x="448" y="128" as="targetPoint" />
          </mxGeometry>
        </mxCell>
        <mxCell id="eLOrg-9Cc9pyKztP_usg-24" value="" style="endArrow=none;html=1;rounded=0;strokeWidth=2;exitX=1;exitY=0.5;exitDx=0;exitDy=0;entryX=0;entryY=0.5;entryDx=0;entryDy=0;endFill=0;" edge="1" parent="1" source="eLOrg-9Cc9pyKztP_usg-4" target="eLOrg-9Cc9pyKztP_usg-20">
          <mxGeometry width="50" height="50" relative="1" as="geometry">
            <mxPoint x="390" y="148" as="sourcePoint" />
            <mxPoint x="448" y="173" as="targetPoint" />
          </mxGeometry>
        </mxCell>
        <mxCell id="eLOrg-9Cc9pyKztP_usg-14" value="" style="shape=flexArrow;endArrow=classic;html=1;rounded=0;fillColor=#f8cecc;strokeColor=#b85450;width=11;endSize=4.06;" edge="1" parent="1">
          <mxGeometry width="50" height="50" relative="1" as="geometry">
            <mxPoint x="556" y="146" as="sourcePoint" />
            <mxPoint x="556" y="116.5" as="targetPoint" />
          </mxGeometry>
        </mxCell>
        <mxCell id="eLOrg-9Cc9pyKztP_usg-25" value="collect coverage file" style="text;html=1;align=center;verticalAlign=middle;whiteSpace=wrap;rounded=0;fontSize=16;fontColor=#FF0000;" vertex="1" parent="1">
          <mxGeometry x="558" y="118" width="181" height="30" as="geometry" />
        </mxCell>
        <mxCell id="eLOrg-9Cc9pyKztP_usg-26" value="/.../nested_1" style="text;html=1;align=center;verticalAlign=middle;whiteSpace=wrap;rounded=0;fontSize=18;strokeColor=#666666;fillColor=#f5f5f5;fontColor=#333333;" vertex="1" parent="1">
          <mxGeometry x="439" y="196" width="115" height="30" as="geometry" />
        </mxCell>
        <mxCell id="eLOrg-9Cc9pyKztP_usg-27" value="/.../nested_1" style="text;html=1;align=center;verticalAlign=middle;whiteSpace=wrap;rounded=0;fontSize=18;strokeColor=#666666;fillColor=#f5f5f5;fontColor=#333333;" vertex="1" parent="1">
          <mxGeometry x="393" y="365" width="115" height="30" as="geometry" />
        </mxCell>
        <mxCell id="eLOrg-9Cc9pyKztP_usg-28" value="" style="shape=flexArrow;endArrow=classic;html=1;rounded=0;fillColor=#f8cecc;strokeColor=#b85450;width=11;endSize=4.06;" edge="1" parent="1">
          <mxGeometry width="50" height="50" relative="1" as="geometry">
            <mxPoint x="498" y="199" as="sourcePoint" />
            <mxPoint x="498" y="169.5" as="targetPoint" />
          </mxGeometry>
        </mxCell>
        <mxCell id="eLOrg-9Cc9pyKztP_usg-29" value="" style="shape=flexArrow;endArrow=classic;html=1;rounded=0;fillColor=#f8cecc;strokeColor=#b85450;width=11;endSize=4.06;" edge="1" parent="1">
          <mxGeometry width="50" height="50" relative="1" as="geometry">
            <mxPoint x="673" y="199" as="sourcePoint" />
            <mxPoint x="673" y="169.5" as="targetPoint" />
          </mxGeometry>
        </mxCell>
        <mxCell id="eLOrg-9Cc9pyKztP_usg-30" value="collect coverage file" style="text;html=1;align=center;verticalAlign=middle;whiteSpace=wrap;rounded=0;fontSize=16;fontColor=#FF3333;" vertex="1" parent="1">
          <mxGeometry x="498" y="172" width="181" height="30" as="geometry" />
        </mxCell>
      </root>
    </mxGraphModel>
  </diagram>
</mxfile>
